<svg id="rain" enable-background="new 0 0 300 300" height="512" viewBox="0 0 300 300" width="512" xmlns="http://www.w3.org/2000/svg"><g><path d="m258.378 93.219c1.387-1.027 1.961-2.828 1.422-4.469-.543-1.641-2.074-2.748-3.801-2.748h-28c-.855 0-1.688.275-2.379.783l-183.998 136c-1.389 1.027-1.963 2.828-1.422 4.469s2.072 2.748 3.799 2.748h28c.855 0 1.689-.275 2.377-.783l21.624-15.982v40.765c0 2.209 1.791 4 4 4s4-1.791 4-4v-46.678zm-187.697 128.784h-14.541l173.176-128h14.543z"/><path d="m256 174.003h-52c-2.211 0-4 1.791-4 4v76c0 2.209 1.789 4 4 4s4-1.791 4-4v-72h48c2.211 0 4-1.791 4-4s-1.789-4-4-4z"/><path d="m256 186.003h-40c-2.211 0-4 1.791-4 4v64c0 2.209 1.789 4 4 4s4-1.791 4-4v-60h36c2.211 0 4-1.791 4-4s-1.789-4-4-4z"/><path d="m83.105 69.499c.275.057.551.084.82.084 1.855 0 3.52-1.297 3.912-3.184l4.078-19.58c.451-2.164-.938-4.281-3.1-4.732-2.176-.449-4.283.939-4.732 3.1l-4.078 19.58c-.451 2.163.938 4.28 3.1 4.732z"/><path d="m75.761 104.741c.275.057.551.084.82.084 1.855 0 3.52-1.297 3.912-3.184l4.08-19.578c.451-2.162-.938-4.281-3.1-4.732-2.18-.461-4.283.938-4.732 3.1l-4.08 19.578c-.45 2.161.938 4.281 3.1 4.732z"/><path d="m56.767 195.919c.275.057.551.084.82.084 1.855 0 3.52-1.297 3.912-3.184l1.047-5.027c.451-2.164-.938-4.281-3.1-4.732-2.172-.447-4.285.939-4.732 3.1l-1.047 5.027c-.451 2.163.938 4.28 3.1 4.732z"/><path d="m68.419 139.985c.275.057.551.084.82.084 1.855 0 3.52-1.297 3.912-3.184l4.08-19.58c.451-2.164-.938-4.281-3.1-4.732-2.184-.455-4.285.938-4.732 3.1l-4.08 19.58c-.45 2.164.938 4.281 3.1 4.732z"/><path d="m61.078 175.229c.275.057.551.084.82.084 1.855 0 3.52-1.297 3.912-3.184l4.078-19.58c.451-2.164-.938-4.281-3.1-4.732-2.184-.453-4.283.938-4.732 3.1l-4.078 19.58c-.451 2.164.938 4.281 3.1 4.732z"/><path d="m105.4 115.672-4.08 19.58c-.451 2.164.938 4.281 3.1 4.732.275.057.551.084.82.084 1.855 0 3.52-1.297 3.912-3.184l4.08-19.58c.451-2.164-.938-4.281-3.1-4.732-2.181-.454-4.283.938-4.732 3.1z"/><path d="m102.791 147.817c-2.152-.447-4.279.938-4.732 3.1l-.68 3.258c-.451 2.162.936 4.281 3.1 4.732.275.057.549.084.82.084 1.854 0 3.518-1.297 3.912-3.184l.68-3.258c.45-2.162-.936-4.281-3.1-4.732z"/><path d="m119.105 69.499c.275.057.551.084.82.084 1.855 0 3.52-1.297 3.912-3.184l4.078-19.58c.451-2.164-.938-4.281-3.1-4.732-2.174-.449-4.283.939-4.732 3.1l-4.078 19.58c-.451 2.163.938 4.28 3.1 4.732z"/><path d="m111.761 104.741c.275.057.551.084.82.084 1.855 0 3.52-1.297 3.912-3.184l4.08-19.578c.451-2.162-.938-4.281-3.1-4.732-2.178-.461-4.283.938-4.732 3.1l-4.08 19.578c-.45 2.161.938 4.281 3.1 4.732z"/><path d="m147.906 104.77c.27.057.543.082.809.082 1.859 0 3.523-1.303 3.914-3.193l4.031-19.588c.445-2.164-.949-4.279-3.113-4.725-2.156-.453-4.277.951-4.723 3.111l-4.031 19.588c-.446 2.165.949 4.28 3.113 4.725z"/><path d="m141.566 115.719-1.906 9.271c-.445 2.162.949 4.277 3.113 4.723.27.057.543.082.809.082 1.859 0 3.523-1.303 3.914-3.195l1.906-9.271c.445-2.162-.949-4.277-3.113-4.723-2.164-.447-4.278.949-4.723 3.113z"/><path d="m155.164 69.51c.27.057.543.082.809.082 1.859 0 3.523-1.303 3.914-3.193l4.031-19.59c.445-2.164-.949-4.279-3.113-4.725-2.148-.457-4.277.951-4.723 3.111l-4.031 19.59c-.446 2.165.949 4.28 3.113 4.725z"/><path d="m186.472 97.936c.246.045.488.066.727.066 1.895 0 3.578-1.35 3.93-3.279l2.309-12.59c.398-2.172-1.039-4.256-3.211-4.654-2.195-.396-4.258 1.041-4.656 3.213l-2.309 12.59c-.399 2.172 1.038 4.256 3.21 4.654z"/><path d="m191.668 69.608c.246.045.488.066.727.066 1.895 0 3.578-1.35 3.93-3.277l3.609-19.672c.398-2.174-1.039-4.258-3.211-4.656-2.207-.404-4.262 1.041-4.656 3.211l-3.609 19.672c-.4 2.174 1.038 4.258 3.21 4.656z"/><path d="m89.152 136.885 4.078-19.58c.451-2.164-.938-4.281-3.1-4.732-2.182-.455-4.283.938-4.732 3.1l-4.078 19.58c-.451 2.164.938 4.281 3.1 4.732.275.057.551.084.82.084 1.855 0 3.519-1.297 3.912-3.184z"/><path d="m82.789 147.817c-2.186-.453-4.285.938-4.732 3.1l-4.078 19.578c-.451 2.164.938 4.281 3.1 4.732.275.057.551.084.82.084 1.855 0 3.52-1.297 3.912-3.184l4.078-19.578c.45-2.164-.938-4.281-3.1-4.732z"/><path d="m91.761 104.741c.275.057.551.084.82.084 1.855 0 3.52-1.297 3.912-3.184l4.08-19.578c.451-2.162-.938-4.281-3.1-4.732-2.182-.461-4.283.938-4.732 3.1l-4.08 19.578c-.45 2.161.938 4.281 3.1 4.732z"/><path d="m99.103 69.499c.275.057.551.084.82.084 1.855 0 3.52-1.297 3.912-3.184l4.08-19.58c.451-2.164-.938-4.281-3.1-4.732-2.178-.449-4.283.939-4.732 3.1l-4.08 19.58c-.451 2.163.938 4.28 3.1 4.732z"/><path d="m135.103 69.499c.275.057.551.084.82.084 1.854 0 3.518-1.297 3.912-3.184l4.078-19.58c.453-2.162-.934-4.281-3.098-4.732-2.191-.449-4.285.939-4.73 3.1l-4.082 19.58c-.451 2.163.938 4.28 3.1 4.732z"/><path d="m126.13 112.573c-2.18-.455-4.283.938-4.732 3.1l-4.078 19.58c-.451 2.164.938 4.281 3.1 4.732.275.057.551.084.82.084 1.855 0 3.52-1.297 3.912-3.184l4.078-19.58c.451-2.164-.937-4.281-3.1-4.732z"/><path d="m127.761 104.741c.275.057.551.084.82.084 1.855 0 3.52-1.297 3.912-3.184l4.08-19.578c.449-2.162-.938-4.281-3.1-4.732-2.18-.461-4.283.938-4.732 3.1l-4.08 19.578c-.45 2.161.938 4.281 3.1 4.732z"/><path d="m164.39 104.868c.262.053.52.076.777.076 1.871 0 3.543-1.32 3.922-3.227l3.871-19.621c.426-2.166-.984-4.27-3.152-4.697-2.164-.438-4.27.982-4.699 3.15l-3.871 19.621c-.426 2.167.984 4.27 3.152 4.698z"/><path d="m171.355 69.549c.262.053.52.076.777.076 1.871 0 3.543-1.32 3.922-3.227l3.871-19.623c.426-2.166-.984-4.27-3.152-4.697-2.164-.438-4.27.982-4.699 3.15l-3.871 19.623c-.426 2.167.984 4.271 3.152 4.698z"/><path d="m208 69.667c.227.039.453.057.672.057 1.918 0 3.609-1.381 3.941-3.334l3.332-19.721c.367-2.178-1.102-4.242-3.277-4.609-2.211-.389-4.242 1.102-4.613 3.277l-3.332 19.721c-.368 2.177 1.101 4.241 3.277 4.609z"/></g></svg>