<svg id="Capa_1" enable-background="new 0 0 512.061 512.061" height="512" viewBox="0 0 512.061 512.061" width="512" xmlns="http://www.w3.org/2000/svg"><g><path d="m31.494 246.682c10.882 11.187 28.736 11.402 39.89.551l4.258-4.142v215.796c-8.03.108-14.531 6.666-14.531 14.721v23.72c0 8.123 6.608 14.732 14.73 14.732h360.379c8.123 0 14.731-6.609 14.731-14.732v-23.72c0-8.056-6.502-14.613-14.532-14.721v-215.796l4.258 4.142c11.332 11.021 29.153 10.489 39.89-.551 10.871-11.176 10.628-29.018-.551-39.89l-55.169-53.665v-47.14c0-4.142-3.357-7.5-7.5-7.5s-7.5 3.358-7.5 7.5v32.549l-40.362-39.262v-46.033h40.362v17.746c0 4.142 3.357 7.5 7.5 7.5s7.5-3.358 7.5-7.5v-17.746c10.603 0 16.06-7.337 16.06-14.731v-23.72c0-8.123-6.608-14.731-14.731-14.731h-73.019c-8.123 0-14.731 6.608-14.731 14.731v23.72c0 7.378 5.416 14.731 16.06 14.731v31.443l-78.786-76.636c-11.03-10.731-28.31-10.73-39.34 0l-204.315 198.744c-11.177 10.87-11.423 28.712-.551 39.89zm404.457 250.379h-359.841v-23.184h359.841zm-202.426-256.839h-34.895c-4.143 0-7.5 3.357-7.5 7.5s3.357 7.5 7.5 7.5h32.986v21.412h-100.971v-21.412h32.986c4.143 0 7.5-3.357 7.5-7.5s-3.357-7.5-7.5-7.5h-34.895c-7.219 0-13.092 5.873-13.092 13.092v205.563h-25.002v-230.377l165.388-160.878 165.389 160.878v230.377h-174.802v-205.564c0-7.218-5.873-13.091-13.092-13.091zm-1.908 51.412v167.243h-100.972v-167.243zm121.808-253.393v-23.183h72.481v23.183zm-310.921 179.303 204.315-198.744c5.165-5.025 13.255-5.025 18.422 0l204.315 198.745c5.234 5.088 5.348 13.444.258 18.678-5.108 5.252-13.466 5.328-18.679.258l-189.875-184.698c-2.912-2.832-7.547-2.832-10.459 0l-189.877 184.698c-5.218 5.079-13.575 4.986-18.678-.259-5.09-5.233-4.976-13.588.258-18.678z"/><path d="m278.535 436.255h104.789c7.219 0 13.092-5.873 13.092-13.092v-169.85c0-7.219-5.873-13.092-13.092-13.092h-104.789c-7.219 0-13.092 5.873-13.092 13.092v169.85c0 7.219 5.873 13.092 13.092 13.092zm102.881-15h-42.986v-57.31h42.986zm0-72.31h-42.986v-57.312h42.986zm-100.973-93.723h100.973v21.412h-100.973zm0 36.412h42.986v57.312h-42.986zm0 72.311h42.986v57.31h-42.986z"/><path d="m198.7 387.242c12.415 0 22.515-10.1 22.515-22.514 0-12.415-10.1-22.515-22.515-22.515s-22.515 10.1-22.515 22.515c.001 12.415 10.1 22.514 22.515 22.514zm0-30.028c4.144 0 7.515 3.371 7.515 7.515 0 4.143-3.371 7.514-7.515 7.514s-7.515-3.371-7.515-7.514c.001-4.144 3.372-7.515 7.515-7.515z"/></g></svg>