<?xml version="1.0" encoding="UTF-8"?>
<svg xmlns="http://www.w3.org/2000/svg" width="512" height="512" viewBox="0 0 128 128"><g><path d="M126.25,67.43H1.75A1.749,1.749,0,0,0,0,69.18V114.7a1.749,1.749,0,0,0,1.75,1.75h124.5A1.749,1.749,0,0,0,128,114.7V69.18A1.749,1.749,0,0,0,126.25,67.43ZM3.5,112.945v-5.64H21.312a1.75,1.75,0,0,0,0-3.5H3.5v-23H56.25a1.75,1.75,0,0,0,0-3.5H3.5V70.93h121V95.55H113.187a1.75,1.75,0,0,0,0,3.5H124.5v4.755H87a1.75,1.75,0,0,0,0,3.5h37.5v5.64Z"/><path d="M126.25,11.555H81a1.749,1.749,0,0,0-1.75,1.75v1.81H8.75A8.76,8.76,0,0,0,0,23.865V35.337A1.749,1.749,0,0,0,2.288,37l7.7-2.485L16.6,39.171a1.751,1.751,0,0,0,1.545.234l7.693-2.485,6.614,4.654A1.754,1.754,0,0,0,34,41.808l7.692-2.486L48.3,43.975a1.749,1.749,0,0,0,1.546.234l7.689-2.485,6.608,4.652a1.757,1.757,0,0,0,1.546.234l7.692-2.486,5.868,4.13v.676a1.751,1.751,0,0,0,1.166,1.65l22.625,8.006a1.757,1.757,0,0,0,.584.1H126.25a1.75,1.75,0,0,0,1.75-1.75V13.305A1.749,1.749,0,0,0,126.25,11.555ZM8.75,18.615h70.5v4.507H3.553A5.256,5.256,0,0,1,8.75,18.615ZM74.682,40.759a1.748,1.748,0,0,0-1.545-.234l-7.692,2.486-6.608-4.653a1.751,1.751,0,0,0-1.546-.234L49.6,40.61l-6.609-4.653a1.751,1.751,0,0,0-1.546-.234l-7.692,2.486-6.614-4.654a1.743,1.743,0,0,0-1.545-.234L17.9,35.807l-6.617-4.655a1.751,1.751,0,0,0-1.545-.234L3.5,32.933V26.622H79.25V43.975ZM124.5,55.186H103.926L82.75,47.692V15.055H124.5Z"/><path d="M88.416,44.924l16,5.662a1.757,1.757,0,0,0,.584.1H118.25a1.75,1.75,0,0,0,1.75-1.75V21.305a1.749,1.749,0,0,0-1.75-1.75H89a1.749,1.749,0,0,0-1.75,1.75V43.274A1.749,1.749,0,0,0,88.416,44.924ZM116.5,39.186H112V31.055h4.5ZM90.75,23.055H116.5v4.5h-6.25a1.749,1.749,0,0,0-1.75,1.75V40.936a1.75,1.75,0,0,0,1.75,1.75h6.25v4.5H105.3L90.75,42.038Z"/><path d="M32.625,89.93h55.5a1.75,1.75,0,0,0,1.75-1.75V86.242a2.438,2.438,0,0,1,4.875,0V88.18a1.75,1.75,0,0,0,1.75,1.75h9.625a1.75,1.75,0,0,0,0-3.5H98.25v-.188a5.938,5.938,0,0,0-11.875,0v.188H32.625a1.75,1.75,0,0,0,0,3.5Z"/><path d="M55.125,95.55H17.875a1.75,1.75,0,0,0,0,3.5h37.25a1.75,1.75,0,1,0,0-3.5Z"/><path d="M69.375,80.805H77.75a1.75,1.75,0,0,0,0-3.5H69.375a1.75,1.75,0,0,0,0,3.5Z"/></g></svg>
