<svg height="512" viewBox="0 0 60 60" width="512" xmlns="http://www.w3.org/2000/svg"><g id="Page-1" fill="none" fill-rule="evenodd"><g id="044---Scarf" fill="rgb(0,0,0)" fill-rule="nonzero"><path id="Shape" d="m54 19.307v-11.307c0-1.1045695-.8954305-2-2-2h-5c-1.1045695 0-2 .8954305-2 2v3.84l-13.713-11.376c-.74635-.61901764-1.82765-.61901764-2.574 0l-27.984 23.216c-.42025648.3480713-.68119772.8518443-.72304964 1.3959193-.04185192.5440749.13897178 1.0818298.50104964 1.4900807l2.493 2.814c.71944125.821428 1.96358428.9169604 2.8.215l.2-.172v2.761c-1.19435087.4222546-1.99474861 1.5492146-2 2.816v12c.00525139 1.2667854.80564913 2.3937454 2 2.816v8.184c0 1.1045695.8954305 2 2 2h44c1.1045695 0 2-.8954305 2-2v-8.184c1.1943509-.4222546 1.9947486-1.5492146 2-2.816v-12c-.0052514-1.2667854-.8056491-2.3937454-2-2.816v-2.761l.207.172c.8341162.7011603 2.0760231.6055606 2.793-.215l2.491-2.813c.3621312-.4084187.5429775-.9463338.5011276-1.4905704-.0418498-.5442366-.3028112-1.0481783-.7231276-1.3964296zm-7-11.307h5v9.647l-5-4.147zm-40 26h3.586l-4.586 4.586v-3.586c0-.5522847.44771525-1 1-1zm47 1v2.586l-9 9v-5.172l7.414-7.414h.586c.5522847 0 1 .4477153 1 1zm-9 3.586v-4.586h4.586zm-2 6.414h-7c-.5522847 0-1 .4477153-1 1s.4477153 1 1 1h7v4h-14v-4h3c.5522847 0 1-.4477153 1-1s-.4477153-1-1-1h-3v-13c0-.5522847.4477153-1 1-1h12c.5522847 0 1 .4477153 1 1zm-16-3.414-6.414 6.414h-5.172l11.586-11.586zm0 2.828v3.586h-3.586zm-14.414 3.586h-5.172l14-14h5.172zm-6.586-1.414v-5.172l7.414-7.414h5.172zm2 11.414v-8h19v5c0 .5522847.4477153 1 1 1s1-.4477153 1-1v-2h2v2c0 .5522847.4477153 1 1 1s1-.4477153 1-1v-2h2v2c0 .5522847.4477153 1 1 1s1-.4477153 1-1v-2h2v2c0 .5522847.4477153 1 1 1s1-.4477153 1-1v-2h2v2c0 .5522847.4477153 1 1 1s1-.4477153 1-1v-5h7v8zm45-10h-6.586l7.586-7.586v6.586c0 .5522847-.4477153 1-1 1zm-1-16h-7c0-1.6568542-1.3431458-3-3-3h-12c-1.6568542 0-3 1.3431458-3 3h-19v-4.236l22-18.251 22 18.251zm3.505-3.946c-.0061633.0048403-.0148367.0048403-.021 0l-24.845-20.61c-.3704282-.30772435-.9075718-.30772435-1.278 0l-24.861 20.61-2.494-2.835 28.003-23.219 27.991 23.24z"/></g></g></svg>