<svg id="Capa_1" enable-background="new 0 0 512 512" height="512" viewBox="0 0 512 512" width="512" xmlns="http://www.w3.org/2000/svg"><path d="m504.5 355h-27.203c-4.142 0-7.5 3.357-7.5 7.5s3.358 7.5 7.5 7.5h19.703v56h-83.993v-56h39.291c4.142 0 7.5-3.357 7.5-7.5s-3.358-7.5-7.5-7.5h-105.965v-56h59.173c4.142 0 7.5-3.357 7.5-7.5v-71c0-4.143-3.358-7.5-7.5-7.5h-59.173v-63.5c0-4.143-3.358-7.5-7.5-7.5h-91.493v-15.5c0-4.143-3.358-7.5-7.5-7.5s-7.5 3.357-7.5 7.5v15.5h-100.051c-14.063-6.215-24.218-19.312-27.455-33.767-1.492-6.783-1.379-14.01.284-22.233h127.222v15.5c0 4.143 3.358 7.5 7.5 7.5s7.5-3.357 7.5-7.5v-23c0-4.143-3.358-7.5-7.5-7.5h-59.173v-63.5c0-4.143-3.358-7.5-7.5-7.5h-165.667c-4.142 0-7.5 3.357-7.5 7.5v459.959c0 4.143 3.358 7.5 7.5 7.5s7.5-3.357 7.5-7.5v-452.459h93.985c.848 37.256-36.648 71.576-11.643 114.467 7.546 12.933 17.742 21.706 30.57 26.972 35.187 14.443 77.908-1.687 99.947 32.942v.001c21.578 33.892-8.888 64.321-12.266 101.438-1.31 14.395 1.892 27.536 9.721 39.839v-.001c17.821 28.003 45.681 30.242 70.261 32.219 29.55 2.374 51.96 5.858 63.236 33.877 4.601 11.441 3.819 22.79.588 34.796-5.574 20.711-17.966 42.073-17.569 65.449h-326.83v-4.295c0-4.143-3.358-7.5-7.5-7.5s-7.5 3.357-7.5 7.5v11.796c0 4.143 3.358 7.5 7.5 7.5h497c4.142 0 7.5-3.357 7.5-7.5v-142c0-4.143-3.358-7.5-7.5-7.5zm-106.493 15v56h-22.005c3.915-22.73-3.827-42.286-16.82-56zm-66.674-16.785c-11.069-3.37-22.965-4.365-34.56-5.296-25.009-2.008-45.185-3.911-58.806-25.313v-.001c-5.037-7.914-7.323-15.649-7.629-23.604h100.995zm66.674-69.215h-166.208c4.032-18.891 13.823-35.386 17.506-56h148.702zm-66.674-127v56h-80.839c-.329-11.056-3.562-21.587-9.981-31.673v.001c-7.386-11.606-16.895-19.375-28.566-24.328zm-165.666-142v56h-56.307c6.309-18.378 14.959-36.131 14.644-56zm331.333 482h-140.151c-.412-17.99 9.426-36.929 15.41-56h124.741z"/></svg>