<?xml version="1.0"?>
<svg xmlns="http://www.w3.org/2000/svg" id="Layer_3" data-name="Layer 3" viewBox="0 0 64 64" width="512" height="512"><path d="M62.625,25.219,56,19.919V12a1,1,0,0,0-1-1H47a.993.993,0,0,0-.986.93L32.625,1.219a1,1,0,0,0-1.25,0l-11,8.8c-.125,0-.248-.019-.375-.019A12.015,12.015,0,0,0,8.22,19.743L1.375,25.219A1,1,0,0,0,2,27H3V62a1,1,0,0,0,1,1H60a1,1,0,0,0,1-1V27h1a1,1,0,0,0,.625-1.781ZM48,13h6v5.319l-6-4.8ZM32,3.28,59.149,25h-6.8L32.625,9.219a1,1,0,0,0-1.25,0l-4.087,3.27a11.932,11.932,0,0,0-4.207-2.073ZM31.949,21H37v4H31.605A11.926,11.926,0,0,0,32,22C32,21.662,31.977,21.331,31.949,21ZM38,19H31.605a11.963,11.963,0,0,0-2.82-5.147L32,11.28,49.149,25H39V20A1,1,0,0,0,38,19ZM20,12a10,10,0,1,1-4.5,18.917l5.086-5.086a6.109,6.109,0,0,0,2.377.094,6,6,0,0,0,4.682-7.968A1,1,0,0,0,26,17.591l-1.288,1.288a1.021,1.021,0,0,1-1.414,0l-.171-.172a1,1,0,0,1,0-1.414L24.41,16a1,1,0,0,0-.368-1.648,6.11,6.11,0,0,0-3.083-.268,6.023,6.023,0,0,0-4.884,4.951,6.127,6.127,0,0,0,.094,2.377L11.083,26.5A9.981,9.981,0,0,1,20,12Zm-1.762,9.361a4,4,0,0,1,3.054-5.3c.094-.017.188-.03.281-.039a3,3,0,0,0,.134,4.1l.171.172a3.074,3.074,0,0,0,4.1.135c-.01.093-.022.185-.038.279a4,4,0,0,1-5.3,3.055A1.008,1.008,0,0,0,19.59,24l-5.816,5.817a10.08,10.08,0,0,1-1.586-1.586L18,22.409A1,1,0,0,0,18.238,21.361Zm-10.215,1.1A11.983,11.983,0,0,0,8.4,25H4.851ZM39,52.586,35.914,49.5,39,46.414Zm0-14-7,7-7-7V38H39ZM25,46.414,28.086,49.5,25,52.586Zm0,9,5.207-5.207a1,1,0,0,0,0-1.414L25,43.586V41.414l6.293,6.293a1,1,0,0,0,1.414,0L39,41.414v2.172l-5.207,5.207a1,1,0,0,0,0,1.414L39,55.414v2.172l-6.293-6.293a1,1,0,0,0-1.414,0L25,57.586ZM25,61v-.586l7-7,7,7V61Zm34,0H41V37a1,1,0,0,0-1-1H24a1,1,0,0,0-1,1V61H5V27H9.105A11.979,11.979,0,0,0,30.9,27H59Z"/><path d="M20,36H8a1,1,0,0,0-1,1V51a1,1,0,0,0,1,1H20a1,1,0,0,0,1-1V37A1,1,0,0,0,20,36ZM19,50H9V38h4v2.586l-1.707,1.707A1,1,0,0,0,11,43v3h2V43.414l1.293,1.293a1,1,0,0,0,1.414,0l2-2-1.414-1.414L15,42.586,14.414,42l.293-.293A1,1,0,0,0,15,41V38h4Z"/><path d="M44,52H56a1,1,0,0,0,1-1V37a1,1,0,0,0-1-1H44a1,1,0,0,0-1,1V51A1,1,0,0,0,44,52Zm1-14H55V50H51V47a1,1,0,0,0-.293-.707L50.414,46,51,45.414l1.293,1.293,1.414-1.414-2-2a1,1,0,0,0-1.414,0L49,44.586V42H47v3a1,1,0,0,0,.293.707L49,47.414V50H45Z"/><path d="M47.107,9A.893.893,0,0,1,48,9.894V10h2V9.894A2.9,2.9,0,0,0,47.107,7a1.086,1.086,0,0,1-1.093-.824A1,1,0,0,1,47,5a1,1,0,0,0,1-1,.993.993,0,0,1,1.748-.652,1.03,1.03,0,0,0,1.5,0A.964.964,0,0,1,52.5,3.142a1,1,0,0,0,1.006,0,1,1,0,0,1,1.5.852l-.018.141a1,1,0,0,0,.5,1A1,1,0,0,1,56,6.074,1.091,1.091,0,0,1,54.873,7,2.876,2.876,0,0,0,52,9.873V10h2V9.873A.874.874,0,0,1,54.873,9a3.08,3.08,0,0,0,3.12-2.785,2.964,2.964,0,0,0-1-2.451A3,3,0,0,0,54,1a2.941,2.941,0,0,0-1,.178,2.982,2.982,0,0,0-2.5.23,2.99,2.99,0,0,0-4.371,1.721A3,3,0,0,0,44.041,6.5,3.082,3.082,0,0,0,47.107,9Z"/></svg>
