<svg height="480pt" viewBox="0 0 480 480" width="480pt" xmlns="http://www.w3.org/2000/svg"><path d="m144.226562 178.710938c1.90625 7.789062 3.5625 15.429687 5.039063 22.84375.738281 3.742187 4.019531 6.441406 7.835937 6.445312.523438 0 1.046876-.050781 1.5625-.152344 4.332032-.859375 7.148438-5.070312 6.289063-9.402344-1.507813-7.640624-3.226563-15.507812-5.179687-23.53125-.671876-2.78125-2.78125-4.992187-5.53125-5.796874-2.746094-.804688-5.714844-.078126-7.78125 1.902343-2.066407 1.976563-2.917969 4.914063-2.234376 7.691407zm0 0"/><path d="m136.359375 150.136719c1.316406 4.210937 5.789063 6.5625 10.003906 5.253906 4.210938-1.304687 6.574219-5.773437 5.277344-9.988281-6.425781-21.097656-14.621094-41.613282-24.507813-61.328125-1.289062-2.554688-3.847656-4.226563-6.707031-4.382813s-5.585937 1.230469-7.144531 3.628906c-1.5625 2.402344-1.71875 5.453126-.414062 8.003907 9.476562 18.90625 17.335937 38.582031 23.492187 58.8125zm0 0"/><path d="m.3125 297.953125c.175781.667969.4375 1.308594.78125 1.910156.121094.214844.191406.445313.332031.652344.546875.789063 1.226563 1.472656 2.015625 2.019531.046875.035156.070313.089844.121094.121094.367188.210938.753906.394531 1.152344.542969.246094.144531.496094.273437.753906.390625l74.53125 24.84375v23.566406h-8c-4.417969 0-8 3.582031-8 8v80c0 22.089844 17.910156 40 40 40s40-17.910156 40-40v-80c0-4.417969-3.582031-8-8-8h-8v-16h320c17.671875 0 32-14.328125 32-32s-14.328125-32-32-32h-80v-56c0-4.417969-3.582031-8-8-8h-8v-40c0-4.417969-3.582031-8-8-8h-56v-16h72c13.253906 0 24-10.746094 24-24s-10.746094-24-24-24h-56v-32h80c17.671875 0 32-14.328125 32-32s-14.328125-32-32-32h-280c-1.074219.0234375-2.132812.265625-3.109375.710938l-.179687.085937c-.871094.390625-1.660157.933594-2.335938 1.605469-.074219.074218-.179688.097656-.25.171875l-.1875.210937-.046875.058594c-96.769531 105.128906-97.890625 285.523438-97.890625 293.15625.105469.652344.207031 1.300781.3125 1.953125zm44.492188 1.882813 33.703124-47.1875c2.566407-3.59375 1.734376-8.589844-1.859374-11.15625-3.59375-2.566407-8.589844-1.734376-11.15625 1.859374l-36.566407 51.191407-8.460937-2.820313 26.191406-39.285156c1.617188-2.378906 1.835938-5.441406.570312-8.023438-1.265624-2.585937-3.824218-4.289062-6.695312-4.464843s-5.613281 1.203125-7.1875 3.613281l-15.890625 23.835938c4.257813-53.613282 20.976563-170.699219 86.519531-247.320313.273438.324219.5625.632813.835938.953125 1.257812 1.488281 2.46875 3.007812 3.691406 4.519531 1.15625 1.433594 2.320312 2.859375 3.445312 4.320313 1.195313 1.546875 2.347657 3.128906 3.507813 4.703125 1.085937 1.476562 2.175781 2.945312 3.230469 4.441406 1.136718 1.609375 2.234375 3.246094 3.332031 4.878906 1.011719 1.503907 2.027344 3.003907 3.011719 4.527344 1.078125 1.667969 2.121094 3.359375 3.164062 5.054687.945313 1.527344 1.894532 3.058594 2.808594 4.605469 1.011719 1.707031 1.992188 3.429688 2.96875 5.15625.890625 1.5625 1.777344 3.128907 2.636719 4.707031.953125 1.75 1.882812 3.515626 2.804687 5.28125.820313 1.578126 1.644532 3.160157 2.441406 4.746094.898438 1.792969 1.773438 3.59375 2.640626 5.394532.761718 1.585937 1.523437 3.175781 2.261718 4.769531.84375 1.820312 1.664063 3.652343 2.480469 5.484375.707031 1.597656 1.414063 3.199218 2.101563 4.808594.785156 1.839843 1.554687 3.679687 2.308593 5.527343.65625 1.605469 1.304688 3.207031 1.941407 4.816407.734374 1.859374 1.457031 3.722656 2.160156 5.589843.605468 1.601563 1.203125 3.203125 1.789062 4.808594.683594 1.867187 1.351563 3.738281 2.003906 5.605469.558594 1.597656 1.105469 3.191406 1.644532 4.785156.636718 1.886719 1.257812 3.769531 1.867187 5.648438.507813 1.566406 1.003907 3.128906 1.488281 4.691406.59375 1.902344 1.175782 3.804687 1.746094 5.703125.457032 1.539062.90625 3.074219 1.347656 4.605469.542969 1.894531 1.078126 3.78125 1.601563 5.664062.421875 1.535156.835937 3.0625 1.238281 4.585938.496094 1.867187.984375 3.730468 1.457032 5.582031.382812 1.507812.757812 3.011719 1.121093 4.507812.457031 1.859375.90625 3.714844 1.339844 5.558594.339844 1.453125.667969 2.898437.996094 4.34375.417969 1.847656.832031 3.691406 1.226562 5.519531.304688 1.425782.597657 2.835938.890625 4.246094.378906 1.808594.75 3.613281 1.105469 5.398438.273437 1.378906.53125 2.738281.792969 4.097656.339844 1.789062.683594 3.578125 1.003906 5.339844.238281 1.320312.464844 2.617187.691406 3.921874.304688 1.738282.609375 3.476563.894532 5.179688.214843 1.300781.417968 2.578125.621093 3.859375.265625 1.664063.535157 3.332031.78125 4.960937.191407 1.246094.363281 2.460938.542969 3.683594.234375 1.617188.472656 3.234375.691406 4.8125.164063 1.191406.3125 2.34375.464844 3.511719.207031 1.535156.410156 3.082031.597656 4.578125.140625 1.132812.269532 2.226562.402344 3.335938.175781 1.480468.355469 2.96875.519531 4.402343.117188 1.035157.21875 2.027344.328125 3.039063.152344 1.410156.308594 2.835937.445313 4.195312.101562 1.003906.1875 1.957032.28125 2.933594.125 1.300781.253906 2.613281.367187 3.859375.085938.957031.15625 1.855469.234375 2.78125.101563 1.167969.207031 2.359375.292969 3.472656.070312.90625.128906 1.738281.195312 2.605469.078126 1.066406.164063 2.164062.234376 3.171875.054687.824219.101562 1.574219.152343 2.363281.058594.933594.125 1.898438.175781 2.773438.054688.867187.09375 1.636718.136719 2.441406.039063.714844.082031 1.472656.117188 2.140625.039062.75.066406 1.402344.097656 2.097656.027344.613281.058594 1.285157.082031 1.851563.050782 1.191406.089844 2.28125.121094 3.25l-63.875 21.289062v-31.566406c0-4.417969-3.582031-8-8-8h-32c-4.417969 0-8 3.582031-8 8v31.566406zm83.195312 140.164062c0 13.253906-10.746094 24-24 24s-24-10.746094-24-24v-72h48zm-32-88v-64h16v64zm288-336c8.835938 0 16 7.164062 16 16s-7.164062 16-16 16h-88c-4.417969 0-8 3.582031-8 8v48c0 4.417969 3.582031 8 8 8h64c4.417969 0 8 3.582031 8 8s-3.582031 8-8 8h-80c-4.417969 0-8 3.582031-8 8v32c0 4.417969 3.582031 8 8 8h56v40c0 4.417969 3.582031 8 8 8h8v56c0 4.417969 3.582031 8 8 8h88c8.835938 0 16 7.164062 16 16s-7.164062 16-16 16h-294.703125l49.234375-16.410156c3.265625-1.089844 5.46875-4.148438 5.46875-7.589844 0-.46875-.003906-1.59375-.035156-3.296875-.003906-.289063-.015625-.660156-.019532-.980469-.015624-.632812-.027343-1.25-.046874-2.007812-.011719-.445313-.03125-.980469-.046876-1.46875-.023437-.765625-.046874-1.511719-.078124-2.378906-.019532-.554688-.046876-1.179688-.070313-1.777344-.039063-.945313-.078125-1.882813-.125-2.929688-.03125-.617187-.066406-1.296875-.101563-1.953125-.054687-1.132812-.117187-2.269531-.1875-3.5-.039062-.710937-.089843-1.46875-.136718-2.210937-.078125-1.28125-.15625-2.570313-.253906-3.941406-.054688-.804688-.117188-1.648438-.179688-2.484376-.105469-1.433593-.214844-2.882812-.335938-4.402343-.070312-.863281-.148437-1.753907-.222656-2.644531-.132812-1.570313-.273437-3.164063-.429687-4.816407-.089844-.972656-.1875-1.964843-.285157-2.960937-.164062-1.667969-.335937-3.359375-.519531-5.101563-.113281-1.042969-.226562-2.097656-.347656-3.167969-.199219-1.792968-.410156-3.613281-.636719-5.472656-.132812-1.101562-.269531-2.210937-.410156-3.335937-.238281-1.90625-.492188-3.839844-.757812-5.808594-.160157-1.164063-.320313-2.335937-.488282-3.523437-.277344-1.980469-.574218-3.988282-.878906-6.023438-.1875-1.242188-.378906-2.480469-.574219-3.742188-.328125-2.078124-.667969-4.179687-1.027343-6.308593-.214844-1.273438-.425782-2.539063-.652344-3.828125-.378906-2.175782-.78125-4.378906-1.191406-6.597656-.238282-1.296876-.476563-2.585938-.730469-3.898438-.4375-2.285156-.90625-4.597656-1.378907-6.921875-.265624-1.289063-.519531-2.566406-.796874-3.867187-.507813-2.40625-1.050782-4.835938-1.597657-7.277344-.285156-1.269532-.5625-2.523438-.855469-3.800782-.582031-2.507812-1.203124-5.039062-1.832031-7.578124-.308593-1.25-.605469-2.488282-.921875-3.746094-.671875-2.636719-1.386718-5.292969-2.105468-7.957032-.320313-1.175781-.621094-2.34375-.949219-3.523437-.785157-2.820313-1.621094-5.660156-2.464844-8.503906-.3125-1.046875-.601563-2.085938-.921875-3.136719-.941406-3.097656-1.9375-6.207031-2.953125-9.320312-.261719-.804688-.503906-1.601563-.769531-2.40625-1.242188-3.742188-2.539063-7.488282-3.890625-11.238282-.066407-.179687-.121094-.359375-.1875-.535156-2.890625-7.992188-6.039063-15.988281-9.46875-23.929688l-.085938-.191406c-1.65625-3.832031-3.378906-7.648437-5.171875-11.453125l-.019531-.050781h79.140625v-16h-80v14.246094c-.121094-.257813-.253906-.511719-.378906-.765625-1.4375-2.996094-2.890625-5.980469-4.414063-8.945313-.609375-1.183594-1.257812-2.347656-1.882812-3.523437-1.386719-2.625-2.777344-5.246094-4.234375-7.839844-.75-1.335937-1.546875-2.652344-2.316406-3.976563-1.394532-2.402343-2.789063-4.800781-4.246094-7.167968-.878906-1.429688-1.800782-2.828125-2.703125-4.242188-1.425781-2.238281-2.855469-4.472656-4.34375-6.679687-.980469-1.449219-2.003907-2.875-3.007813-4.308594-1.488281-2.117187-2.976562-4.234375-4.519531-6.3125-1.089844-1.464844-2.21875-2.902344-3.335937-4.347656-1.0625-1.375-2.082032-2.78125-3.171876-4.136719zm0 0"/><path d="m480 56v-48c0-4.417969-3.582031-8-8-8h-32c-4.417969 0-8 3.582031-8 8v48c0 4.417969 3.582031 8 8 8h32c4.417969 0 8-3.582031 8-8zm-16-8h-16v-32h16zm0 0"/><path d="m392 208c-4.417969 0-8 3.582031-8 8v32c0 4.417969 3.582031 8 8 8h32c4.417969 0 8-3.582031 8-8v-32c0-4.417969-3.582031-8-8-8zm24 32h-16v-16h16zm0 0"/><path d="m464 136v-32c0-4.417969-3.582031-8-8-8h-48c-4.417969 0-8 3.582031-8 8v32c0 4.417969 3.582031 8 8 8h48c4.417969 0 8-3.582031 8-8zm-16-8h-32v-16h32zm0 0"/><path d="m160 32h48v16h-48zm0 0"/><path d="m224 32h16v16h-16zm0 0"/><path d="m256 304v-16h-48v16zm0 0"/><path d="m208 256h32v16h-32zm0 0"/><path d="m272 288h16v16h-16zm0 0"/></svg>