<svg id="Capa_1" enable-background="new 0 0 556.823 556.823" height="512" viewBox="0 0 556.823 556.823" width="512" xmlns="http://www.w3.org/2000/svg"><path d="m550.02 50.115h-543.218c-3.756 0-6.802 3.045-6.802 6.801v191.052c.006.575.085 1.147.235 1.702-.156 1.494-.235 2.995-.235 4.498-.001 3.756 3.043 6.802 6.8 6.803 3.756.001 6.802-3.043 6.803-6.8 0-.001 0-.002 0-.003-.007-8.708 3.835-16.974 10.496-22.582 6.562-5.555 15.243-7.928 23.718-6.483 7.823 1.34 15.541 3.238 23.093 5.681 26.03 8.344 53.813 9.603 80.492 3.649 19.819-4.367 39.962-7.1 60.227-8.174 3.751-.199 6.63-3.401 6.432-7.152-.199-3.751-3.401-6.63-7.152-6.432-5.415.286-10.826.689-16.233 1.21v-43.5h167.472v93.063h-6.419c-15.937-17.591-35.705-31.281-57.778-40.012-3.491-1.387-7.445.319-8.832 3.81s.319 7.445 3.81 8.832c26.561 10.484 49.312 28.786 65.241 52.486 2.544 3.781 5.001 7.664 7.306 11.546 17.478 29.441 49.113 47.561 83.351 47.743h11.345c45.845.051 82.996 37.203 83.047 83.047v45.882h-239.165c-3.756-.001-6.802 3.043-6.803 6.8-.001 3.756 3.043 6.802 6.8 6.803h.003 245.966c3.756 0 6.802-3.045 6.802-6.801v-426.668c0-3.757-3.045-6.801-6.802-6.801zm-6.801 106.666h-76.934v-93.064h76.934zm-271.608 0h-167.47v-93.064h167.471v93.064zm-258.008-93.064h76.935v93.064h-76.935zm167.471 151.725c-10.972 1.443-21.869 3.343-32.605 5.714-24.317 5.431-49.642 4.287-73.371-3.315-8.172-2.643-16.524-4.697-24.989-6.147-12.427-2.126-25.159 1.349-34.783 9.494-.591.499-1.166 1.012-1.724 1.538v-52.342h167.472zm104.14-151.725h167.47v93.064h-167.47zm174.271 106.668h83.735v93.063h-167.464v-93.063zm.687 163.863h-11.345c-29.442-.167-56.641-15.762-71.659-41.086-2.437-4.097-5.032-8.201-7.715-12.191-.892-1.327-1.815-2.626-2.745-3.921h176.511v104.48c-17.413-29.297-48.966-47.261-83.047-47.282z"/><path d="m421.631 90.073c.163.412.368.807.612 1.177.255.368.539.715.851 1.036.317.311.664.591 1.036.835.743.496 1.575.842 2.449 1.021.437.086.881.131 1.327.134 2.277.025 4.408-1.116 5.65-3.025.249-.37.46-.764.629-1.177.345-.825.524-1.709.529-2.603-.003-.445-.048-.889-.137-1.325-.086-.438-.217-.866-.392-1.276-.164-.415-.375-.81-.629-1.177-.239-.375-.518-.722-.832-1.037-1.614-1.594-3.912-2.288-6.138-1.854-.437.08-.865.206-1.276.374-.41.176-.803.387-1.177.63-.372.249-.719.533-1.036.85-.316.318-.601.665-.851 1.037-.248.368-.453.763-.612 1.177-.173.411-.304.838-.391 1.276-.088.436-.134.88-.135 1.325.002.893.18 1.777.523 2.602z"/><path d="m240.493 93.113c.743.495 1.575.842 2.449 1.021.875.179 1.777.179 2.652 0s1.707-.525 2.449-1.021c.371-.245.719-.524 1.037-.835 1.61-1.604 2.306-3.91 1.854-6.137-.086-.438-.218-.865-.392-1.276-.165-.415-.376-.81-.63-1.177-.239-.375-.518-.723-.832-1.037-.318-.316-.665-.6-1.037-.85-.374-.243-.767-.454-1.177-.63-.413-.167-.839-.298-1.275-.391-.876-.171-1.776-.171-2.652 0-.875.178-1.707.524-2.449 1.021-.372.249-.719.534-1.036.85-.316.318-.6.665-.85 1.037-.248.368-.454.763-.613 1.177-.18.408-.311.837-.39 1.276-.089.436-.135.88-.137 1.325-.021 2.276 1.119 4.406 3.025 5.65z"/><path d="m240.493 121.117c.374.243.768.453 1.177.63.411.167.838.293 1.275.374.875.18 1.777.18 2.652 0 .437-.081.864-.206 1.275-.374.409-.176.803-.387 1.177-.63.371-.25.718-.535 1.037-.85.314-.315.593-.662.832-1.037.253-.368.464-.762.63-1.177.172-.405.303-.827.392-1.258.087-.443.132-.893.135-1.344-.011-1.801-.725-3.528-1.989-4.811-.319-.31-.666-.589-1.037-.833-.742-.496-1.574-.843-2.449-1.021-.876-.17-1.776-.17-2.652 0-.875.178-1.707.524-2.449 1.021-1.907 1.243-3.048 3.374-3.025 5.65.004 1.804.718 3.533 1.989 4.813.315.314.661.597 1.03.847z"/><path d="m424.133 121.117c.374.243.768.453 1.177.63.414.165.841.296 1.276.391.437.081.882.121 1.327.118 3.755 0 6.799-3.044 6.799-6.799s-3.044-6.799-6.799-6.799c-.445 0-.89.044-1.326.131-.875.177-1.707.524-2.449 1.021-.376.244-.723.529-1.036.85-2.653 2.653-2.653 6.954 0 9.607.315.315.661.6 1.031.85z"/><path d="m392.76 90.073c.169.413.38.807.63 1.177.243.371.522.718.832 1.036.319.31.666.59 1.037.835.37.249.764.459 1.177.629.412.171.839.302 1.276.392.437.086.881.131 1.327.134.445-.002.89-.047 1.327-.134.437-.088.864-.219 1.275-.392.415-.165.809-.376 1.177-.629.375-.24.723-.519 1.038-.835.311-.322.595-.668.85-1.036.236-.378.446-.771.63-1.177.165-.412.29-.84.373-1.276.087-.437.133-.881.137-1.327-.004-.451-.049-.901-.137-1.343-.083-.431-.208-.852-.373-1.258-.179-.408-.39-.801-.63-1.177-.25-.371-.535-.718-.85-1.037-.314-.32-.662-.605-1.038-.85-.371-.247-.766-.458-1.177-.63-.411-.168-.838-.294-1.275-.374-.874-.187-1.779-.187-2.653 0-.437.08-.865.206-1.276.374-.41.176-.803.387-1.177.63-.372.25-.719.534-1.037.85-.314.314-.593.662-.832 1.037-.254.367-.465.762-.63 1.177-.172.405-.303.827-.392 1.258-.087.442-.132.892-.135 1.343.003.445.048.89.135 1.327s.219.864.391 1.276z"/><path d="m394.885 196.748c.171.412.382.806.629 1.177.25.372.535.719.851 1.037.314.32.661.605 1.036.851.372.246.766.457 1.177.629.411.168.839.294 1.276.374.436.088.88.133 1.325.135.445-.003.89-.048 1.327-.135.436-.083.863-.209 1.275-.374.409-.176.803-.386 1.177-.629.372-.25.719-.535 1.037-.851.315-.314.594-.662.833-1.037.253-.368.465-.762.63-1.177.173-.411.303-.838.391-1.275.452-2.228-.244-4.534-1.854-6.138-.318-.31-.665-.589-1.037-.832-.37-.25-.764-.461-1.177-.63-.411-.172-.838-.302-1.275-.391-.876-.171-1.776-.171-2.652 0-.438.086-.865.217-1.276.391-.415.165-.81.376-1.177.63-.375.239-.722.518-1.036.832-1.273 1.278-1.988 3.008-1.992 4.812-.006.446.04.891.137 1.327.081.436.207.863.375 1.274z"/><path d="m429.163 200.953c1.805.005 3.537-.711 4.812-1.989.32-.314.605-.662.85-1.037.247-.371.458-.765.63-1.177.166-.413.297-.84.392-1.275.726-3.689-1.675-7.268-5.363-7.994s-7.268 1.675-7.994 5.363c-.085.43-.128.866-.128 1.304.014 3.751 3.052 6.788 6.802 6.801v.004z"/><path d="m517.956 294.909c-1.805.008-3.535.727-4.813 2.001-.314.315-.594.663-.833 1.038-.256.366-.467.761-.629 1.177-.171.406-.302.827-.391 1.258-.088.442-.134.892-.137 1.343.003.446.049.891.137 1.328.091.436.222.863.391 1.275.169.413.379.807.629 1.177.245.366.524.708.833 1.021.314.32.661.606 1.037.851.37.249.764.459 1.177.627.411.174.838.306 1.276.392.874.182 1.777.182 2.651 0 .875-.179 1.706-.525 2.449-1.019.379-.241.727-.527 1.038-.851 2.653-2.665 2.643-6.977-.023-9.63-1.273-1.267-2.994-1.979-4.789-1.983z"/><path d="m397.401 228.663c.368.253.762.464 1.177.63.411.174.838.305 1.276.391.436.089.88.135 1.325.137.893-.005 1.777-.184 2.601-.527.413-.169.807-.38 1.177-.63 2.295-1.516 3.439-4.275 2.891-6.971-.087-.437-.218-.864-.391-1.275-.165-.415-.376-.81-.63-1.177-.24-.375-.519-.722-.833-1.037-.322-.311-.669-.595-1.037-.85-.374-.243-.768-.454-1.177-.63-.412-.165-.839-.29-1.275-.373-.874-.187-1.778-.187-2.652 0-.437.081-.864.206-1.276.373-.411.172-.805.383-1.177.63-.745.498-1.385 1.138-1.883 1.883-.247.371-.457.766-.629 1.177-.169.411-.294.838-.375 1.275-.096.436-.141.881-.137 1.327.003 1.804.719 3.533 1.992 4.812.314.314.66.594 1.033.835z"/><path d="m6.803 285.552c-3.756 0-6.801 3.045-6.801 6.801v191.228c0 3.756 3.045 6.801 6.801 6.801h192.391c3.756-.001 6.8-3.047 6.8-6.803-.001-3.755-3.045-6.799-6.8-6.8h-185.589v-184.426c0-3.756-3.045-6.801-6.802-6.801.001 0 .001 0 0 0z"/><path d="m51.637 376.155c.016 15.499 12.575 28.061 28.074 28.079h1.252c12.735-.009 23.873-8.58 27.142-20.888l2.374-8.972c1.686-6.345 7.427-10.763 13.992-10.768 13.951-.061 25.764-10.308 27.793-24.111l2.553-17.849c.531-3.718-2.053-7.163-5.771-7.695-3.718-.531-7.163 2.053-7.695 5.771l-2.55 17.85c-1.047 7.114-7.136 12.395-14.326 12.425-12.736.009-23.873 8.582-27.142 20.891l-2.374 8.97c-1.686 6.345-7.427 10.763-13.992 10.768h-1.257c-7.987-.012-14.459-6.485-14.469-14.472v-12.262c-.001-3.756-3.047-6.8-6.803-6.8-3.755.001-6.799 3.045-6.8 6.8z"/><path d="m58.438 337.559c3.756-.001 6.801-3.046 6.801-6.802v-3.68c-.001-3.756-3.047-6.8-6.803-6.8-3.755.001-6.799 3.045-6.8 6.8v3.68c.001 3.756 3.046 6.801 6.802 6.802z"/><path d="m384.082 404.884 12.037 3.793c4.652 1.466 8.289 5.12 9.732 9.779l2.667 8.604c4.654 15.018 20.601 23.419 35.619 18.764 11.915-3.693 20.039-14.713 20.04-27.188v-20.858c-.049-3.757-3.134-6.762-6.891-6.713-3.687.048-6.664 3.026-6.713 6.713v20.858c0 8.209-6.655 14.864-14.864 14.864-6.516 0-12.272-4.243-14.199-10.468l-2.668-8.604c-2.763-8.922-9.727-15.92-18.635-18.727l-12.037-3.793c-5.399-1.678-9.366-6.29-10.218-11.879l-2.284-14.584c-.541-3.718-3.993-6.293-7.711-5.752s-6.293 3.993-5.752 7.711c.007.049.015.099.023.148l2.284 14.582c1.635 10.702 9.232 19.534 19.57 22.75z"/><path d="m316.51 370.115h-34.394c-3.756-.001-6.802 3.043-6.803 6.8-.001 3.756 3.043 6.802 6.8 6.803h.003 34.394c10.082-.001 18.254-8.175 18.253-18.257 0-2.642-.574-5.252-1.681-7.65l-63.75-138.033c-4.227-9.152-15.073-13.145-24.226-8.918-3.938 1.819-7.1 4.98-8.918 8.918l-63.749 138.032c-4.227 9.153-.233 20 8.92 24.227 2.398 1.108 5.009 1.681 7.651 1.682h56.949v15.054c-10.739 3.049-18.155 12.849-18.171 24.012v58.939c-.008 13.791 11.165 24.978 24.957 24.987 13.791.008 24.978-11.165 24.987-24.957 0-.01 0-.02 0-.03v-58.943c-.016-11.164-7.431-20.964-18.171-24.012v-53.969c.001-3.756-3.043-6.802-6.8-6.803-3.756-.001-6.802 3.043-6.803 6.8v.003 25.314h-56.949c-2.569-.001-4.651-2.085-4.65-4.654 0-.673.147-1.337.429-1.948l63.75-138.033c1.076-2.332 3.838-3.349 6.17-2.273 1.004.463 1.81 1.269 2.273 2.273l63.752 138.033c1.076 2.334.056 5.098-2.277 6.174-.61.281-1.274.427-1.946.427zm-52.38 52.663v58.943c.006 6.279-5.08 11.374-11.359 11.379-6.279.006-11.374-5.08-11.379-11.359 0-.007 0-.013 0-.02v-58.943c-.006-6.279 5.08-11.374 11.359-11.379 6.279-.006 11.374 5.08 11.379 11.359z"/></svg>