<svg id="Capa_1" enable-background="new 0 0 512.005 512.005" height="512" viewBox="0 0 512.005 512.005" width="512" xmlns="http://www.w3.org/2000/svg"><g><path d="m504.504 179.074c4.143 0 7.5-3.357 7.5-7.5v-44.844c.039-2.778-1.571-5.844-4.592-7.071l-236.113-105.467c-4.814-2.151-9.978-3.233-15.145-3.253-.05-.001-.099-.008-.15-.008s-.099.007-.15.008c-5.167.021-10.331 1.103-15.144 3.253l-236.114 105.467c-2.552 1.093-4.7 3.814-4.592 7.071v44.844c0 4.143 3.357 7.5 7.5 7.5h20.851v233h-20.851c-4.143 0-7.5 3.357-7.5 7.5v27c0 4.143 3.357 7.5 7.5 7.5h11v39.5c0 4.143 3.357 7.5 7.5 7.5h460c4.143 0 7.5-3.357 7.5-7.5v-39.5h11c4.143 0 7.5-3.357 7.5-7.5v-27c0-4.143-3.357-7.5-7.5-7.5h-20.851v-233zm-142.775-60-78.999-83.348 186.595 83.348zm-190.783 0 77.558-81.827v81.827zm-128.262 0 186.594-83.347-78.998 83.347zm220.82-81.828 77.558 81.827h-77.558zm-220.149 141.828h13v233h-13zm453.649 260h-138.5c-4.143 0-7.5 3.357-7.5 7.5s3.357 7.5 7.5 7.5h120v32h-445v-32h290c4.143 0 7.5-3.357 7.5-7.5s-3.357-7.5-7.5-7.5h-308.5v-12h482zm-348-42v15h-30v-15zm54.5-25h105v10h-105zm-23.5-45c-3.032 0-5.5-2.468-5.5-5.5s2.468-5.5 5.5-5.5h152c3.032 0 5.5 2.468 5.5 5.5s-2.468 5.5-5.5 5.5zm128.5 15v15h-105v-15zm-105 55h105v15h-105zm201.457-15h-53.915v-10.208c0-2.481 2.019-4.5 4.5-4.5h25.915c6.893 0 12.5-5.607 12.5-12.5l.001-63.696c0-4.136 3.364-7.5 7.5-7.5h3.5zm-11.957 15v15h-30v-15zm75.649 15h-13v-87.284c0-4.143-3.357-7.5-7.5-7.5s-7.5 3.357-7.5 7.5v87.284h-32.649v-15h4.457c4.143 0 7.5-3.357 7.5-7.5l.001-113.404c0-1.989-.79-3.896-2.196-5.304-1.407-1.406-3.314-2.196-5.304-2.196h-11c-12.406 0-22.5 10.094-22.5 22.5l-.001 61.196h-23.415c-10.752 0-19.5 8.748-19.5 19.5v17.708c0 4.143 3.357 7.5 7.5 7.5h4.458v15h-24.5v-70h8.5c11.304 0 20.5-9.196 20.5-20.5s-9.196-20.5-20.5-20.5h-152c-11.304 0-20.5 9.196-20.5 20.5s9.196 20.5 20.5 20.5h8.5v70h-24.5v-15h4.457c4.143 0 7.5-3.357 7.5-7.5v-17.708c0-10.752-8.748-19.5-19.5-19.5h-23.415v-61.196c0-12.406-10.094-22.5-22.5-22.5h-11c-4.143 0-7.5 3.357-7.5 7.5v51.152c0 4.143 3.357 7.5 7.5 7.5s7.5-3.357 7.5-7.5v-43.652h3.5c4.136 0 7.5 3.364 7.5 7.5v63.696c0 6.893 5.607 12.5 12.5 12.5h25.915c2.481 0 4.5 2.019 4.5 4.5v10.208h-53.915v-19.752c0-4.143-3.357-7.5-7.5-7.5s-7.5 3.357-7.5 7.5v27.252c0 4.143 3.357 7.5 7.5 7.5h4.458v15h-32.649v-233h97.671c4.143 0 7.5-3.357 7.5-7.5s-3.357-7.5-7.5-7.5h-154.022v-30h482v30h-292.979c-4.143 0-7.5 3.357-7.5 7.5s3.357 7.5 7.5 7.5h44.479v11.093c-22.809 3.61-40.306 23.404-40.306 47.213v.62c0 4.143 3.357 7.5 7.5 7.5h8.556c3.183 14.604 16.206 25.574 31.75 25.574s28.567-10.971 31.75-25.574h8.556c4.143 0 7.5-3.357 7.5-7.5v-.62c0-23.809-17.496-43.603-40.306-47.213v-11.093h177.149v110.716c0 4.143 3.357 7.5 7.5 7.5s7.5-3.357 7.5-7.5v-110.716h13zm-244.729-181.575c3.171-14.797 16.351-25.926 32.08-25.926s28.909 11.129 32.08 25.926zm48.144 15c-2.689 6.213-8.875 10.574-16.064 10.574s-13.375-4.361-16.064-10.574z"/></g></svg>