<svg id="Layer_3" enable-background="new 0 0 64 64" height="512" viewBox="0 0 64 64" width="512" xmlns="http://www.w3.org/2000/svg"><g><path d="m62 1h-6c-.552 0-1 .448-1 1v23h-32v-5c0-.552-.448-1-1-1h-13v-17c0-.552-.448-1-1-1h-6c-.552 0-1 .448-1 1v60c0 .552.448 1 1 1h60c.552 0 1-.448 1-1v-60c0-.552-.448-1-1-1zm-53 50h7v4h-7zm7-24v4h-7v-4zm27 10v-4h8v4zm0 12v-4h8v4zm-10 0v-4h8v4zm-10 0v-4h8v4zm-10 0v-4h8v4zm8-16v4h-8v-4zm10 0v4h-8v-4zm10 0v4h-8v-4zm-13 10v-4h8v4zm-2-4v4h-8v-4zm12 4v-4h8v4zm0-12v-4h8v4zm-2 0h-8v-4h8zm-10 0h-8v-4h8zm-15 2v4h-2v-4zm5 6v4h-7v-4zm-5 6v4h-2v-4zm7 6h8v4h-8zm10 0h8v4h-8zm10 0h8v4h-8zm10 0h7v4h-7zm7-2h-2v-4h2zm0-6h-7v-4h7zm0-6h-2v-4h2zm0-6h-7v-4h7zm-34-6h-8v-4h8zm-10-4v4h-2v-4zm50 40h-58v-58h4v53c0 .552.448 1 1 1h48c.552 0 1-.448 1-1v-53h4z"/><path d="m30 23.121c.13 0 .26-.025.385-.077l12-5c.308-.128.531-.401.596-.729.065-.327-.038-.665-.274-.901l-2.793-2.793 4.586-4.586.793.793c.195.195.451.293.707.293s.512-.098.707-.293l3.5-3.5c.59-.59.915-1.374.915-2.208 0-.833-.325-1.618-.915-2.208-1.217-1.216-3.197-1.216-4.414 0l-3.5 3.5c-.391.391-.391 1.023 0 1.414l.793.793-4.586 4.588-2.793-2.793c-.236-.236-.573-.339-.901-.274s-.601.289-.729.596l-5 12c-.156.374-.071.805.216 1.092.191.192.447.293.707.293zm17.207-19.792c.438-.438 1.148-.437 1.586 0 .212.212.329.494.329.793 0 .3-.117.581-.329.793l-2.793 2.792-1.586-1.586zm-11.858 8.555 1.737 1.737-1.793 1.793 1.414 1.414 1.793-1.793 1.737 1.737-8.38 3.492z"/></g></svg>