<svg id="Capa_1" enable-background="new 0 0 512.28 512.28" height="512" viewBox="0 0 512.28 512.28" width="512" xmlns="http://www.w3.org/2000/svg"><g><path d="m424.591 212.082h-18.141v-45.982c0-14.747-11.998-26.744-26.745-26.744h-15.912v-131.745c0-4.143-3.358-7.5-7.5-7.5s-7.5 3.357-7.5 7.5v131.744h-50.23v-34.823c0-12.758-10.379-23.137-23.138-23.137-12.758 0-23.137 10.379-23.137 23.137v34.823h-134.762v-131.744c0-4.143-3.358-7.5-7.5-7.5s-7.5 3.357-7.5 7.5v131.744h-10.125c-14.747 0-26.745 11.997-26.745 26.744v106.966c0 14.747 11.998 26.745 26.745 26.745h10.125v23.916c0 4.143 3.358 7.5 7.5 7.5s7.5-3.357 7.5-7.5v-23.916h19.954v78.548c0 5.502-4.476 9.978-9.977 9.978s-9.977-4.476-9.977-9.978v-22.669c0-4.143-3.358-7.5-7.5-7.5s-7.5 3.357-7.5 7.5v22.669c0 13.772 11.205 24.978 24.977 24.978s24.977-11.205 24.977-24.978v-78.548h31.915v41.465c0 13.772 11.205 24.977 24.977 24.977s24.977-11.204 24.977-24.977v-41.465h68.41c4.142 0 7.5-3.357 7.5-7.5s-3.358-7.5-7.5-7.5h-210.358c-6.476 0-11.745-5.269-11.745-11.745v-59.319l6.915 3.096c27.381 12.261 56.559 18.424 85.827 18.424 23.729 0 47.521-4.055 70.441-12.197 24.343-8.648 49.765-12.349 75.565-10.995 25.079 1.315 49.303 7.354 72.045 17.93v43.061c0 6.477-5.269 11.745-11.745 11.745h-44.984c-4.142 0-7.5 3.357-7.5 7.5s3.358 7.5 7.5 7.5h44.985c14.747 0 26.745-11.998 26.745-26.745v-45.983h18.142c3.878 0 7.033 3.155 7.033 7.033v62.073c0 2.667-1.478 5.071-3.857 6.275l-194.288 98.302c-4.824 2.441-7.821 7.316-7.821 12.723v15.188h-9.445c-8.935 0-16.205 7.27-16.205 16.204v59.901c0 4.143 3.358 7.5 7.5 7.5s7.5-3.357 7.5-7.5v-59.901c0-.664.541-1.204 1.205-1.204h33.89c.664 0 1.205.54 1.205 1.204v59.901c0 4.143 3.358 7.5 7.5 7.5s7.5-3.357 7.5-7.5v-59.901c0-8.935-7.27-16.204-16.205-16.204h-9.445v-14.731l193.878-98.095c7.455-3.771 12.086-11.305 12.086-19.66v-62.073c.001-12.151-9.883-22.035-22.032-22.035zm-205.243 87.729v41.465c0 5.501-4.476 9.977-9.977 9.977s-9.977-4.476-9.977-9.977v-41.465zm47.94-195.279c0-4.486 3.65-8.137 8.137-8.137s8.138 3.65 8.138 8.137v34.823h-16.275zm-28.47 104.403c-47.537 16.888-99.073 14.835-145.117-5.781l-13.045-5.841v-31.213c0-6.476 5.269-11.744 11.745-11.744h287.304c6.476 0 11.745 5.269 11.745 11.744v47.482c-22.639-9.646-46.565-15.193-71.26-16.487-27.777-1.456-55.158 2.526-81.372 11.84z"/><path d="m191.894 106.82c12.758 0 23.137-10.38 23.137-23.138v-76.182c0-4.143-3.358-7.5-7.5-7.5s-7.5 3.357-7.5 7.5v76.183c0 4.487-3.65 8.138-8.137 8.138s-8.138-3.65-8.138-8.138v-21.105c0-4.143-3.358-7.5-7.5-7.5s-7.5 3.357-7.5 7.5v21.104c0 12.758 10.38 23.138 23.138 23.138z"/><path d="m176.256 38.115c4.142 0 7.5-3.357 7.5-7.5v-23.115c0-4.143-3.358-7.5-7.5-7.5s-7.5 3.357-7.5 7.5v23.115c0 4.143 3.358 7.5 7.5 7.5z"/><path d="m127.502 431.226c-13.772 0-24.977 11.205-24.977 24.978v31.101c0 13.772 11.205 24.977 24.977 24.977s24.977-11.204 24.977-24.977v-31.101c0-13.773-11.204-24.978-24.977-24.978zm9.977 56.078c0 5.501-4.476 9.977-9.977 9.977-5.501 0-9.977-4.476-9.977-9.977v-31.101c0-5.502 4.476-9.978 9.977-9.978s9.977 4.476 9.977 9.978z"/></g></svg>